# xmcd
#
# Track frame offsets:
#	150
#	20062
#	42145
#	60933
#	81159
#	98411
#	119886
#	140670
#	162159
#	182179
#	213432
#	231912
#	255841
#
# Disc length: 3705 seconds
#
# Revision: 1
# Processed by: cddbd v1.5.2PL0 Copyright (c) Steve Scherf et al.
# Submitted via: audiograbber 1.83.01
#
DISCID=ac0e770d
DTITLE=Say Zuzu - Live In Germany [CD 1)
DYEAR=2004
DGENRE=Country
TTITLE0=Don't Leave
TTITLE1=Take These Things
TTITLE2=You Don't Know Me
TTITLE3=Good Girl
TTITLE4=Maylee
TTITLE5=Wasting Time
TTITLE6=Pennsylvania
TTITLE7=Like A Hurricane
TTITLE8=Lonely
TTITLE9=B&m
TTITLE10=Blue To Here
TTITLE11=I'm Your Man (Stringbean)
TTITLE12=Independence Day
EXTD=+ bonus DVD
EXTT0=
EXTT1=
EXTT2=
EXTT3=
EXTT4=
EXTT5=
EXTT6=
EXTT7=
EXTT8=
EXTT9=
EXTT10=
EXTT11=
EXTT12=
PLAYORDER=
